<svg xmlns="http://www.w3.org/2000/svg" viewBox="0 0 453.58 453.58">
    <g id="Layer_2" data-name="Layer 2">
        <g id="Layer_1-2" data-name="Layer 1">
            <circle class="logo-bg" cx="226.79" cy="226.79" r="226.79" />
            <path class="logo-lion"
                d="M110.14,138.13s-46.77,47.47-30.22,91.8c0,0-2.27-8.86,5.67-23.13,0,0,7.68,78,90.27,125.52,0,0,58.75,22.34,60.09,61.2,0,0,.35,16.43-8,21.08,0,0,9.45-23.3-32.87-44.24,0,0-68.55-31.62-77-51.34,0,0-5.59,19.21,25.12,35.48,0,0,20.55,12.17,26.47,12.17,0,0-40.76,2-74.08-38.42,0,0-26.56-35.52-23.18-76.59,0,0-9.41,6-28.38,6.31,0,0,7.24-12.06,10.11-38C54.1,220,64.17,151.93,110.14,138.13Z" />
            <path class="logo-lion"
                d="M216.71,119.78S76.19,176.59,173.23,309c0,0-124-77.68-37.24-190.08,0,0-28.63,10.72-44.86-5.49,0,0,28.51,3.81,46.32-28.37,0,0,17.74-33.68,85.85-5.42,0,0-9.31-12.25-29.8-19.1,0,0-15.48-4-13.76-23.93,0,0,4.38,16.31,51.26,17.93,0,0,21.32,2.85,35.37,19.89,0,0-.32-11.7-7.93-19.1,0,0-5.72-5.23-5-16.58,0,0,17.09,24,33,22.36,0,0,48-1.45,64.11,67,0,0,3,8.07-1.47,20.2,0,0-1.36,2.88-7.12-12.2,0,0-19.64-35.32-47.8-40,0,0-2.94.68,5.18,9.51,0,0,7.36,10,7.74,14.73,0,0-4.08.53-9.05-3.92,0,0-31.69-20.26-76.68-15.24,0,0-59.14,3.69-70.67,46.26,0,0,1.33.94,10.54-11.11C161.26,136.38,192.74,110.3,216.71,119.78Z" />
            <path class="logo-lion"
                d="M241.08,203.06s-64.61-32.76-72.68,39.55c0,0-5.06-11.78,4.85-35.05,0,0-38.88,40.69-.95,77.31,0,0,61.88,45.85,61.75,61.36,0,0,1.27,7.36-.28,9.38,0,0,24.65-31.15-35.39-69.6,0,0-31.2-25.78,4.28-50.19,0,0-17.32-6.85-7.83-22.61C194.83,213.21,206,195.53,241.08,203.06Z" />
            <path class="logo-lion"
                d="M344.7,286.14s0,.44,0,1.24c-.29,6.43-2.94,35.6-27,35.67,0,0,15.22-15.53,11.84-24.57s5.07.83,5.07.83S337.93,301.74,344.7,286.14Z" />
            <path class="logo-lion"
                d="M296,251.63s-17.93-14.83-28.61,6.56c0,0-.78,20,15.84,16.6,0,0,26.61-9.46,46.14-23.69,0,0,16.48-15,23.5,3,0,0,5.66,3.58,0-10.12,0,0-10.18-12.1,5.61-28.92,0,0,12.95-14.16,8.45-17.13,0,0-1.93-2.28-12.1,6.82,0,0-2.84,2.1-7.77-4.26,0,0-3.06-3-6.53-1.38,0,0-4.8,1.21-13.44-3.94,0,0-11.81-6.17-8.11,4.2,0,0,3.52,9.23,15,9.8,0,0,15.82-1.51,14.93,18.42,0,0,.17,10.43-19,18.88C330,246.5,310,259.88,296,251.63Z" />
            <path class="logo-lion"
                d="M299.23,167.84l-7.91-8.52s-34-6.85-30.89-.79L284,172.81s2.69,2.47,7.58,0S299.43,169.45,299.23,167.84Z" />
            <path class="logo-lion"
                d="M346.2,167.79l-8.48-.16s-4.45,6.56,0,6.69c0,0,2.11,1.44,5.81-1.68S350.24,167.71,346.2,167.79Z" />
        </g>
    </g>
</svg>